<?xml version="1.0" standalone="no"?>
<!DOCTYPE svg PUBLIC "-//W3C//DTD SVG 20010904//EN"
 "http://www.w3.org/TR/2001/REC-SVG-20010904/DTD/svg10.dtd">
<svg version="1.0" xmlns="http://www.w3.org/2000/svg"
 width="1600.000000pt" height="1600.000000pt" viewBox="0 0 1600.000000 1600.000000"
 preserveAspectRatio="xMidYMid meet">
<metadata>
Created by potrace 1.14, written by Peter Selinger 2001-2017
</metadata>
<g transform="translate(0.000000,1600.000000) scale(0.100000,-0.100000)"
fill="#000000" stroke="none">
<path d="M8358 15995 c-2 -1 -57 -5 -123 -9 -66 -3 -138 -8 -160 -10 -22 -3
-78 -7 -125 -11 -47 -3 -96 -8 -110 -10 -14 -2 -50 -7 -80 -10 -30 -4 -64 -8
-75 -9 -11 -2 -45 -6 -75 -10 -95 -13 -200 -30 -425 -71 -145 -26 -532 -120
-705 -172 -185 -54 -516 -165 -575 -192 -11 -5 -45 -18 -75 -29 -56 -20 -378
-156 -408 -172 -10 -5 -98 -48 -197 -96 -376 -182 -749 -402 -1105 -653 -67
-47 -335 -248 -373 -281 -12 -10 -56 -46 -97 -80 -468 -385 -896 -829 -1272
-1320 -163 -213 -363 -507 -476 -700 -18 -30 -37 -62 -42 -70 -83 -132 -266
-480 -365 -695 -218 -471 -388 -962 -510 -1470 -35 -144 -99 -455 -110 -535
-3 -25 -8 -52 -10 -60 -2 -8 -6 -33 -9 -55 -3 -22 -10 -78 -16 -125 -21 -158
-25 -197 -36 -330 -3 -41 -8 -91 -9 -110 -25 -261 -25 -1041 0 -1280 2 -19 6
-66 9 -105 13 -150 16 -184 32 -305 18 -143 17 -141 39 -275 9 -55 19 -113 21
-130 15 -94 72 -356 115 -525 161 -644 431 -1318 748 -1868 39 -68 71 -126 71
-129 0 -2 13 -24 30 -48 16 -24 30 -46 30 -49 0 -6 211 -348 287 -465 66 -101
143 -204 149 -198 5 5 -52 128 -181 392 -88 180 -184 397 -234 530 -13 33 -29
74 -36 90 -28 64 -176 518 -219 670 -100 359 -149 599 -171 825 -26 268 -26
1646 0 1895 10 98 29 231 40 285 7 32 14 67 20 102 3 16 12 58 21 95 9 38 18
77 20 88 9 44 13 65 42 180 27 107 43 167 87 325 68 242 235 717 314 895 10
22 47 105 82 185 81 186 283 586 384 760 324 561 704 1075 1135 1534 184 197
441 444 625 602 44 38 85 73 91 79 6 5 30 26 54 45 24 19 71 58 105 85 34 28
76 61 95 75 18 14 38 30 44 35 34 32 307 227 477 341 454 304 941 569 1454
791 149 64 174 75 435 173 229 86 700 232 858 265 9 2 73 17 142 33 111 27
322 70 420 87 19 3 60 10 90 15 30 5 73 12 95 15 22 3 49 7 60 10 11 2 43 7
70 10 28 3 59 8 70 10 11 2 52 7 90 10 39 3 81 8 95 10 14 3 54 7 90 11 66 6
80 7 280 21 229 16 867 9 1085 -12 22 -2 72 -6 110 -9 39 -4 81 -8 95 -10 14
-3 56 -7 95 -11 38 -4 72 -8 75 -10 3 -1 36 -6 75 -10 38 -4 72 -8 75 -10 3
-1 28 -6 55 -9 28 -4 57 -9 65 -11 8 -2 31 -6 51 -9 27 -4 213 -39 319 -61
170 -34 577 -150 810 -231 389 -134 865 -351 1187 -540 18 -11 69 -41 115 -68
100 -59 336 -214 433 -285 39 -28 81 -59 95 -68 21 -15 142 -108 190 -146 36
-28 185 -152 190 -157 3 -3 43 -39 90 -80 81 -72 150 -137 326 -307 178 -172
302 -283 316 -283 5 0 -4 17 -19 39 -16 21 -35 49 -43 61 -30 46 -185 247
-248 325 -125 152 -249 294 -402 460 -71 76 -403 409 -466 465 -74 67 -319
276 -394 336 -154 124 -486 365 -543 396 -12 6 -24 14 -27 17 -3 4 -54 38
-115 75 -60 38 -121 76 -135 86 -28 19 -63 39 -275 158 -316 177 -784 393
-1095 504 -452 162 -796 259 -1215 344 -11 2 -31 6 -45 9 -34 7 -366 63 -415
69 -49 7 -93 12 -170 21 -33 3 -76 8 -95 11 -49 7 -100 11 -215 20 -55 4 -118
9 -140 11 -48 5 -802 13 -807 8z"/>
<path d="M7095 14078 c-56 -19 -308 -118 -379 -149 -358 -155 -632 -287 -820
-393 -54 -31 -100 -56 -101 -56 -4 0 -254 -148 -295 -174 -19 -13 -89 -58
-155 -101 -474 -308 -897 -655 -1308 -1074 -198 -201 -304 -319 -466 -521 -42
-52 -78 -97 -81 -100 -3 -3 -18 -23 -35 -45 -16 -22 -32 -42 -35 -45 -12 -10
-207 -287 -271 -385 -495 -756 -800 -1488 -999 -2395 -33 -153 -34 -155 -43
-210 -4 -19 -9 -51 -13 -70 -9 -56 -11 -68 -28 -208 -9 -73 -20 -174 -24 -225
-15 -188 -5 -1177 13 -1317 2 -19 7 -71 10 -115 7 -92 10 -127 31 -285 17
-132 21 -155 35 -230 6 -30 13 -71 16 -90 11 -75 96 -393 149 -560 101 -318
203 -587 326 -860 191 -422 532 -991 804 -1340 406 -520 807 -933 1269 -1307
304 -246 731 -542 1000 -693 236 -133 311 -173 463 -249 313 -156 474 -227
807 -352 181 -69 569 -194 695 -225 8 -2 96 -24 195 -48 100 -25 196 -48 215
-51 19 -3 67 -12 105 -20 88 -18 278 -52 328 -59 20 -4 54 -9 75 -12 20 -3 44
-7 52 -9 8 -2 42 -7 75 -10 33 -3 71 -8 85 -10 50 -10 110 -17 245 -30 33 -3
78 -8 100 -10 41 -5 143 -14 230 -20 367 -27 1048 -27 1315 0 40 4 144 14 210
20 25 3 95 12 155 20 61 9 126 18 145 20 20 3 45 7 55 9 37 7 100 17 132 21
18 2 40 6 50 9 10 2 40 7 67 11 27 3 52 8 55 9 3 2 27 7 52 10 49 7 328 73
444 106 39 11 126 36 195 56 69 20 157 45 195 55 91 26 370 114 463 146 81 29
103 46 45 37 -65 -10 -285 -52 -338 -64 -27 -7 -59 -14 -70 -15 -11 -2 -51
-10 -90 -18 -38 -9 -88 -18 -110 -21 -22 -3 -62 -10 -90 -16 -27 -5 -70 -11
-95 -15 -25 -3 -55 -7 -67 -9 -12 -3 -50 -7 -85 -11 -35 -3 -74 -8 -88 -10
-297 -43 -956 -53 -1360 -20 -94 7 -198 17 -220 20 -14 2 -52 7 -85 10 -33 4
-100 13 -150 21 -49 7 -108 16 -130 19 -80 12 -262 46 -350 64 -49 11 -101 22
-115 24 -14 3 -74 17 -135 32 -60 14 -117 28 -125 30 -8 2 -73 20 -145 41 -71
20 -141 39 -154 42 -46 10 -555 186 -626 217 -16 7 -113 47 -215 90 -231 97
-584 270 -782 384 -21 11 -55 30 -75 42 -56 31 -104 59 -143 84 -389 244 -543
351 -795 549 -276 218 -505 424 -764 690 -160 165 -192 200 -303 326 -31 36
-66 76 -78 90 -12 14 -73 88 -134 165 -700 873 -1163 1768 -1449 2800 -56 200
-140 600 -172 810 -14 97 -25 177 -30 226 -4 30 -8 68 -10 84 -3 17 -7 64 -11
105 -3 41 -7 86 -10 99 -24 159 -24 948 1 1136 2 17 7 62 10 100 3 39 7 86 10
105 2 19 6 56 9 82 3 26 10 76 15 110 6 35 13 86 17 113 7 53 8 61 24 140 5
28 12 64 15 80 55 296 183 775 245 920 11 25 19 46 18 48 -3 6 28 92 73 202 7
17 13 35 14 41 13 58 264 591 364 772 253 457 610 946 961 1316 181 191 408
407 539 512 13 10 31 26 40 35 14 14 163 133 246 197 227 174 489 345 765 502
394 223 489 284 385 248z"/>
<path d="M11183 13670 c-6 -7 -8 -23 -4 -39 4 -14 6 -43 5 -63 -2 -54 -15
-219 -19 -248 -5 -40 -15 -116 -20 -167 -3 -27 -8 -55 -10 -63 -2 -8 -7 -39
-10 -69 -4 -30 -8 -61 -10 -70 -8 -42 -35 -190 -39 -217 -24 -138 -132 -483
-211 -669 -25 -60 -51 -123 -57 -140 -40 -106 -241 -480 -366 -680 -55 -88
-70 -110 -167 -250 -91 -132 -348 -463 -384 -495 -3 -3 -40 -43 -81 -90 -177
-202 -546 -555 -829 -795 -13 -11 -56 -47 -95 -80 -39 -34 -168 -142 -286
-240 -118 -99 -217 -182 -220 -185 -3 -3 -36 -32 -75 -65 -38 -33 -75 -64 -81
-70 -6 -5 -42 -38 -81 -73 -667 -595 -1123 -1186 -1392 -1806 -84 -193 -201
-560 -226 -709 -3 -18 -8 -39 -10 -47 -2 -8 -6 -26 -9 -40 -27 -157 -30 -173
-41 -265 -4 -27 -8 -60 -10 -73 -27 -166 -27 -633 1 -862 5 -47 24 -184 29
-210 1 -8 6 -37 10 -65 5 -27 9 -52 10 -55 1 -3 7 -32 14 -65 45 -214 104
-426 176 -633 30 -86 59 -166 64 -177 6 -11 24 -54 41 -95 56 -136 64 -154
147 -322 263 -532 604 -994 1009 -1368 49 -46 170 -148 209 -178 107 -81 147
-110 237 -170 59 -40 109 -72 112 -72 2 0 40 -21 83 -46 95 -57 360 -190 463
-233 41 -18 95 -41 120 -51 193 -82 530 -183 688 -206 20 -3 62 -9 92 -14 30
-5 79 -12 109 -15 30 -4 62 -8 71 -10 100 -19 764 -27 925 -11 134 13 167 18
380 60 95 19 387 103 520 149 457 160 934 422 1295 712 158 127 208 172 370
335 184 183 236 240 351 380 359 440 548 812 668 1310 33 134 33 137 56 280
36 216 54 411 70 755 3 66 8 158 11 205 2 46 3 82 0 79 -3 -2 -32 -79 -64
-169 -156 -431 -269 -665 -505 -1044 -24 -40 -191 -272 -226 -316 -250 -311
-542 -590 -841 -802 -105 -74 -295 -198 -304 -198 -3 0 -22 -11 -42 -25 -50
-34 -378 -195 -479 -235 -362 -144 -703 -235 -1040 -275 -27 -4 -57 -8 -65
-10 -66 -18 -558 -25 -730 -12 -459 38 -874 151 -1245 339 -182 93 -430 288
-633 500 -83 86 -242 286 -242 305 0 6 -4 13 -8 15 -21 9 -222 374 -222 405 0
4 -7 20 -14 35 -21 39 -92 253 -116 347 -22 87 -54 248 -65 326 -4 28 -9 59
-11 69 -26 142 -26 671 0 811 2 11 7 43 10 70 11 73 17 115 22 139 2 11 8 46
14 76 6 30 13 66 16 80 3 14 7 36 10 50 12 61 68 275 100 384 133 447 320 864
494 1102 74 100 178 197 255 234 60 30 82 35 150 37 132 3 230 -27 620 -187
233 -96 448 -173 512 -185 15 -2 49 -8 74 -13 95 -18 277 4 344 41 11 6 23 10
27 9 16 -4 136 125 156 168 24 53 59 171 66 220 21 153 24 209 25 495 l1 211
95 63 c127 85 198 155 213 212 7 24 10 53 8 64 -3 11 -5 23 -5 26 -1 4 -23 36
-50 73 -38 52 -48 73 -45 94 8 40 7 40 154 134 30 20 63 44 72 55 26 29 46 85
41 117 -5 34 -36 99 -69 142 -13 16 -33 52 -45 78 -42 96 -2 154 182 264 112
66 186 130 195 168 11 42 -55 223 -191 529 -120 268 -199 486 -220 604 -3 19
-8 37 -10 41 -5 8 -18 188 -18 245 0 78 15 263 27 330 3 17 8 48 12 70 5 34
42 243 58 325 2 14 18 95 36 180 31 154 55 295 65 380 3 25 7 54 9 66 21 105
28 435 13 544 -7 49 -26 155 -42 235 -28 139 -104 292 -132 265z"/>
<path d="M9434 12656 c-38 -45 -82 -106 -131 -181 -41 -62 -230 -310 -305
-400 -9 -11 -43 -51 -75 -90 -32 -38 -70 -83 -85 -100 -15 -16 -36 -41 -47
-54 -290 -336 -797 -848 -1151 -1160 -58 -51 -123 -110 -145 -130 -23 -20 -63
-55 -90 -77 -28 -23 -68 -57 -90 -75 -22 -19 -49 -42 -60 -51 -11 -9 -110 -90
-220 -179 -110 -89 -202 -165 -205 -168 -3 -3 -34 -30 -70 -60 -36 -30 -69
-59 -75 -65 -5 -6 -26 -24 -45 -40 -224 -183 -714 -666 -930 -916 -76 -87
-217 -261 -265 -325 -17 -22 -33 -44 -38 -50 -374 -490 -679 -1151 -731 -1585
-26 -217 -27 -590 -1 -800 10 -78 30 -220 38 -260 7 -37 21 -104 22 -110 1 -3
5 -23 10 -45 10 -53 49 -203 75 -290 12 -38 27 -90 34 -115 35 -120 141 -395
239 -615 134 -302 400 -778 612 -1095 296 -442 649 -920 680 -920 8 0 -34 122
-70 205 -8 17 -52 122 -100 235 -48 113 -93 219 -100 235 -32 69 -259 637
-304 760 -11 28 -35 95 -56 150 -119 324 -253 773 -281 944 -8 51 -13 71 -18
89 -6 19 -7 26 -30 192 -31 235 -38 350 -38 680 0 246 7 453 17 511 2 13 6 45
9 72 17 148 174 607 277 809 44 85 121 222 130 228 3 3 14 19 23 35 9 17 27
44 39 60 121 167 103 143 203 265 108 131 154 183 329 374 121 132 252 270
476 501 162 166 170 175 450 466 108 112 213 222 234 244 142 152 247 264 271
291 123 133 195 212 211 230 87 100 130 149 144 163 14 14 184 213 228 266
231 281 332 414 486 645 169 252 242 385 386 695 14 32 79 212 110 309 61 187
90 328 70 340 -5 4 -27 -14 -47 -38z"/>
</g>
</svg>
